<svg id="visual" viewBox="0 0 960 540" width="960" height="540" xmlns="http://www.w3.org/2000/svg" xmlns:xlink="http://www.w3.org/1999/xlink" version="1.1"><rect x="0" y="0" width="960" height="540" fill="#fffefc"></rect><defs><linearGradient id="grad1_0" x1="43.8%" y1="0%" x2="100%" y2="100%"><stop offset="14.444444444444446%" stop-color="#fffefc" stop-opacity="1"></stop><stop offset="85.55555555555554%" stop-color="#fffefc" stop-opacity="1"></stop></linearGradient></defs><defs><linearGradient id="grad2_0" x1="0%" y1="0%" x2="56.3%" y2="100%"><stop offset="14.444444444444446%" stop-color="#fffefc" stop-opacity="1"></stop><stop offset="85.55555555555554%" stop-color="#fffefc" stop-opacity="1"></stop></linearGradient></defs><g transform="translate(960, 0)"><path d="M0 459C-78.3 444.3 -156.5 429.6 -227 393.2C-297.5 356.8 -360.1 298.6 -397.5 229.5C-434.9 160.4 -446.9 80.2 -459 0L0 0Z" fill="#FBAE3C"></path></g><g transform="translate(0, 540)"><path d="M0 -459C84.6 -449.5 169.1 -439.9 229.5 -397.5C289.9 -355.1 326 -279.7 360.3 -208C394.5 -136.3 426.7 -68.1 459 0L0 0Z" fill="#FBAE3C"></path></g></svg>