<svg width="341" height="298" viewBox="0 0 341 298" fill="none" xmlns="http://www.w3.org/2000/svg">
<path d="M10 255.42C14.1667 184.42 53.5 42.4199 177.5 42.4199C211.5 38.7532 288.1 57.5199 322.5 161.92L287.5 142.92C278 117.087 242.7 65.4199 177.5 65.4199C130.648 65.4199 97.5136 100.017 78.4321 131.92H212V150.42H68.6812C66.1005 156.048 64.0393 161.302 62.5 165.92C61.5845 168.132 60.3548 171.485 58.9067 175.92H212V195.42H53.1924C51.2009 202.899 49.0805 211.591 46.9559 221.42H212V240.92H43.0436C42.1802 245.567 41.3293 250.402 40.5 255.42H10Z" fill="#FE7924"/>
<path d="M226.5 124.42L329.5 183.92L226.5 244.92V124.42Z" fill="#001D53"/>
</svg>
