<svg width="1121" height="298" viewBox="0 0 1121 298" fill="none" xmlns="http://www.w3.org/2000/svg">
<path d="M20 255.42C24.1667 184.42 63.5 42.4199 187.5 42.4199C221.5 38.7532 298.1 57.5199 332.5 161.92L297.5 142.92C288 117.087 252.7 65.4199 187.5 65.4199C140.648 65.4199 107.514 100.017 88.4321 131.92H222V150.42H78.6812C76.1005 156.048 74.0393 161.302 72.5 165.92C71.5845 168.132 70.3548 171.485 68.9067 175.92H222V195.42H63.1924C61.2009 202.899 59.0805 211.591 56.9559 221.42H222V240.92H53.0436C52.1802 245.567 51.3293 250.402 50.5 255.42H20Z" fill="#FE7924"/>
<path d="M236.5 124.42L339.5 183.92L236.5 244.92V124.42Z" fill="#001D53"/>
<path d="M401.184 194.21V121.506H372.512V104.61H450.592V121.506H421.92V194.21H401.184ZM487.517 195.234C479.666 195.234 472.754 193.698 466.781 190.626C460.893 187.554 456.328 183.373 453.085 178.082C449.842 172.706 448.221 166.605 448.221 159.778C448.221 152.866 449.8 146.765 452.957 141.474C456.2 136.098 460.594 131.917 466.141 128.93C471.688 125.858 477.96 124.322 484.957 124.322C491.698 124.322 497.757 125.773 503.133 128.674C508.594 131.49 512.904 135.586 516.061 140.962C519.218 146.253 520.797 152.61 520.797 160.034C520.797 160.802 520.754 161.698 520.669 162.722C520.584 163.661 520.498 164.557 520.413 165.41H464.477V153.762H509.917L502.237 157.218C502.237 153.634 501.512 150.519 500.061 147.874C498.61 145.229 496.605 143.181 494.045 141.73C491.485 140.194 488.498 139.426 485.085 139.426C481.672 139.426 478.642 140.194 475.997 141.73C473.437 143.181 471.432 145.271 469.981 148.002C468.53 150.647 467.805 153.805 467.805 157.474V160.546C467.805 164.301 468.616 167.629 470.237 170.53C471.944 173.346 474.29 175.522 477.277 177.058C480.349 178.509 483.933 179.234 488.029 179.234C491.698 179.234 494.898 178.679 497.629 177.57C500.445 176.461 503.005 174.797 505.309 172.578L515.933 184.098C512.776 187.682 508.808 190.455 504.029 192.418C499.25 194.295 493.746 195.234 487.517 195.234ZM557.259 195.234C551.371 195.234 545.696 194.551 540.235 193.186C534.859 191.735 530.592 189.943 527.435 187.81L534.091 173.474C537.248 175.437 540.96 177.058 545.227 178.338C549.579 179.533 553.846 180.13 558.027 180.13C562.635 180.13 565.878 179.575 567.755 178.466C569.718 177.357 570.699 175.821 570.699 173.858C570.699 172.237 569.931 171.042 568.395 170.274C566.944 169.421 564.982 168.781 562.507 168.354C560.032 167.927 557.302 167.501 554.315 167.074C551.414 166.647 548.47 166.093 545.483 165.41C542.496 164.642 539.766 163.533 537.291 162.082C534.816 160.631 532.811 158.669 531.275 156.194C529.824 153.719 529.099 150.519 529.099 146.594C529.099 142.242 530.336 138.402 532.811 135.074C535.371 131.746 539.04 129.143 543.819 127.266C548.598 125.303 554.315 124.322 560.971 124.322C565.664 124.322 570.443 124.834 575.307 125.858C580.171 126.882 584.224 128.375 587.467 130.338L580.811 144.546C577.483 142.583 574.112 141.261 570.699 140.578C567.371 139.81 564.128 139.426 560.971 139.426C556.534 139.426 553.291 140.023 551.243 141.218C549.195 142.413 548.171 143.949 548.171 145.826C548.171 147.533 548.896 148.813 550.347 149.666C551.883 150.519 553.888 151.202 556.363 151.714C558.838 152.226 561.526 152.695 564.427 153.122C567.414 153.463 570.4 154.018 573.387 154.786C576.374 155.554 579.062 156.663 581.451 158.114C583.926 159.479 585.931 161.399 587.467 163.874C589.003 166.263 589.771 169.421 589.771 173.346C589.771 177.613 588.491 181.41 585.931 184.738C583.371 187.981 579.659 190.541 574.795 192.418C570.016 194.295 564.171 195.234 557.259 195.234ZM630.251 195.234C622.144 195.234 615.83 193.186 611.307 189.09C606.784 184.909 604.523 178.722 604.523 170.53V110.114H624.491V170.274C624.491 173.175 625.259 175.437 626.795 177.058C628.331 178.594 630.422 179.362 633.067 179.362C636.224 179.362 638.912 178.509 641.131 176.802L646.507 190.882C644.459 192.333 641.984 193.442 639.083 194.21C636.267 194.893 633.323 195.234 630.251 195.234ZM593.899 142.242V126.882H641.643V142.242H593.899ZM659.124 194.21V104.61H702.9C714.164 104.61 722.612 106.743 728.244 111.01C733.961 115.277 736.82 120.909 736.82 127.906C736.82 132.599 735.668 136.695 733.364 140.194C731.06 143.607 727.903 146.253 723.892 148.13C719.881 150.007 715.273 150.946 710.068 150.946L712.5 145.698C718.132 145.698 723.124 146.637 727.476 148.514C731.828 150.306 735.199 152.994 737.588 156.578C740.063 160.162 741.3 164.557 741.3 169.762C741.3 177.442 738.271 183.458 732.212 187.81C726.153 192.077 717.236 194.21 705.46 194.21H659.124ZM679.732 178.594H703.924C709.3 178.594 713.353 177.741 716.084 176.034C718.9 174.242 720.308 171.426 720.308 167.586C720.308 163.831 718.9 161.058 716.084 159.266C713.353 157.389 709.3 156.45 703.924 156.45H678.196V141.346H700.34C705.375 141.346 709.215 140.493 711.86 138.786C714.591 136.994 715.956 134.306 715.956 130.722C715.956 127.223 714.591 124.621 711.86 122.914C709.215 121.122 705.375 120.226 700.34 120.226H679.732V178.594ZM755.591 194.21V125.346H774.663V144.802L771.975 139.17C774.023 134.306 777.308 130.637 781.831 128.162C786.354 125.602 791.858 124.322 798.343 124.322V142.754C797.49 142.669 796.722 142.626 796.039 142.626C795.356 142.541 794.631 142.498 793.863 142.498C788.402 142.498 783.964 144.077 780.551 147.234C777.223 150.306 775.559 155.127 775.559 161.698V194.21H755.591ZM810.341 194.21V125.346H830.309V194.21H810.341ZM820.325 115.746C816.656 115.746 813.669 114.679 811.365 112.546C809.061 110.413 807.909 107.767 807.909 104.61C807.909 101.453 809.061 98.8073 811.365 96.6739C813.669 94.5406 816.656 93.4739 820.325 93.4739C823.994 93.4739 826.981 94.4979 829.285 96.5459C831.589 98.5086 832.741 101.069 832.741 104.226C832.741 107.554 831.589 110.327 829.285 112.546C827.066 114.679 824.08 115.746 820.325 115.746ZM878.409 195.234C871.924 195.234 866.078 193.783 860.873 190.882C855.668 187.895 851.529 183.757 848.457 178.466C845.47 173.175 843.977 166.946 843.977 159.778C843.977 152.525 845.47 146.253 848.457 140.962C851.529 135.671 855.668 131.575 860.873 128.674C866.078 125.773 871.924 124.322 878.409 124.322C884.212 124.322 889.289 125.602 893.641 128.162C897.993 130.722 901.364 134.605 903.753 139.81C906.142 145.015 907.337 151.671 907.337 159.778C907.337 167.799 906.185 174.455 903.881 179.746C901.577 184.951 898.249 188.834 893.897 191.394C889.63 193.954 884.468 195.234 878.409 195.234ZM881.865 178.85C885.108 178.85 888.052 178.082 890.697 176.546C893.342 175.01 895.433 172.834 896.969 170.018C898.59 167.117 899.401 163.703 899.401 159.778C899.401 155.767 898.59 152.354 896.969 149.538C895.433 146.722 893.342 144.546 890.697 143.01C888.052 141.474 885.108 140.706 881.865 140.706C878.537 140.706 875.55 141.474 872.905 143.01C870.26 144.546 868.126 146.722 866.505 149.538C864.969 152.354 864.201 155.767 864.201 159.778C864.201 163.703 864.969 167.117 866.505 170.018C868.126 172.834 870.26 175.01 872.905 176.546C875.55 178.082 878.537 178.85 881.865 178.85ZM899.913 194.21V180.13L900.297 159.65L899.017 139.298V99.2339H918.985V194.21H899.913ZM969.85 220.066C963.365 220.066 957.093 219.255 951.034 217.634C945.061 216.098 940.069 213.751 936.058 210.594L943.994 196.258C946.895 198.647 950.565 200.525 955.002 201.89C959.525 203.341 963.962 204.066 968.314 204.066C975.397 204.066 980.517 202.487 983.674 199.33C986.917 196.173 988.538 191.479 988.538 185.25V174.882L989.818 157.602L989.562 140.194V125.346H1008.51V182.69C1008.51 195.49 1005.18 204.919 998.522 210.978C991.866 217.037 982.309 220.066 969.85 220.066ZM966.778 190.882C960.378 190.882 954.575 189.517 949.37 186.786C944.25 183.97 940.111 180.087 936.954 175.138C933.882 170.103 932.346 164.258 932.346 157.602C932.346 150.861 933.882 145.015 936.954 140.066C940.111 135.031 944.25 131.149 949.37 128.418C954.575 125.687 960.378 124.322 966.778 124.322C972.581 124.322 977.701 125.517 982.138 127.906C986.575 130.21 990.031 133.837 992.506 138.786C994.981 143.65 996.218 149.922 996.218 157.602C996.218 165.197 994.981 171.469 992.506 176.418C990.031 181.282 986.575 184.909 982.138 187.298C977.701 189.687 972.581 190.882 966.778 190.882ZM970.746 174.498C974.245 174.498 977.359 173.815 980.09 172.45C982.821 170.999 984.954 168.994 986.49 166.434C988.026 163.874 988.794 160.93 988.794 157.602C988.794 154.189 988.026 151.245 986.49 148.77C984.954 146.21 982.821 144.247 980.09 142.882C977.359 141.431 974.245 140.706 970.746 140.706C967.247 140.706 964.133 141.431 961.402 142.882C958.671 144.247 956.495 146.21 954.874 148.77C953.338 151.245 952.57 154.189 952.57 157.602C952.57 160.93 953.338 163.874 954.874 166.434C956.495 168.994 958.671 170.999 961.402 172.45C964.133 173.815 967.247 174.498 970.746 174.498ZM1061.27 195.234C1053.42 195.234 1046.5 193.698 1040.53 190.626C1034.64 187.554 1030.08 183.373 1026.84 178.082C1023.59 172.706 1021.97 166.605 1021.97 159.778C1021.97 152.866 1023.55 146.765 1026.71 141.474C1029.95 136.098 1034.34 131.917 1039.89 128.93C1045.44 125.858 1051.71 124.322 1058.71 124.322C1065.45 124.322 1071.51 125.773 1076.88 128.674C1082.34 131.49 1086.65 135.586 1089.81 140.962C1092.97 146.253 1094.55 152.61 1094.55 160.034C1094.55 160.802 1094.5 161.698 1094.42 162.722C1094.33 163.661 1094.25 164.557 1094.16 165.41H1038.23V153.762H1083.67L1075.99 157.218C1075.99 153.634 1075.26 150.519 1073.81 147.874C1072.36 145.229 1070.36 143.181 1067.8 141.73C1065.24 140.194 1062.25 139.426 1058.84 139.426C1055.42 139.426 1052.39 140.194 1049.75 141.73C1047.19 143.181 1045.18 145.271 1043.73 148.002C1042.28 150.647 1041.56 153.805 1041.56 157.474V160.546C1041.56 164.301 1042.37 167.629 1043.99 170.53C1045.69 173.346 1048.04 175.522 1051.03 177.058C1054.1 178.509 1057.68 179.234 1061.78 179.234C1065.45 179.234 1068.65 178.679 1071.38 177.57C1074.2 176.461 1076.76 174.797 1079.06 172.578L1089.68 184.098C1086.53 187.682 1082.56 190.455 1077.78 192.418C1073 194.295 1067.5 195.234 1061.27 195.234Z" fill="#001D53"/>
<path d="M833 104.502C833 110.853 827.168 116.002 820.264 116.002C813.361 116.002 807.764 110.853 807.764 104.502C807.764 98.1507 813.361 93.002 820.264 93.002C827.168 93.002 833 98.1507 833 104.502Z" fill="#FE7924"/>
</svg>
